<?xml version="1.0" encoding="UTF-8" standalone="no"?>
<svg
   xmlns:dc="http://purl.org/dc/elements/1.1/"
   xmlns:cc="http://creativecommons.org/ns#"
   xmlns:rdf="http://www.w3.org/1999/02/22-rdf-syntax-ns#"
   xmlns:svg="http://www.w3.org/2000/svg"
   xmlns="http://www.w3.org/2000/svg"
   xmlns:sodipodi="http://sodipodi.sourceforge.net/DTD/sodipodi-0.dtd"
   xmlns:inkscape="http://www.inkscape.org/namespaces/inkscape"
   id="svg2"
   version="1.1"
   xml:space="preserve"
   style="enable-background:new 0 0 47.5 47.5;"
   viewBox="0 0 47.5 47.5"
   inkscape:version="0.91 r13725"
   sodipodi:docname="eccrypt.svg"
   inkscape:export-filename="D:\venv34crypt\eccrypt\images\eccrypt-72x72.png"
   inkscape:export-xdpi="136.42105"
   inkscape:export-ydpi="136.42105"><sodipodi:namedview
     pagecolor="#ffffff"
     bordercolor="#666666"
     borderopacity="1"
     objecttolerance="10"
     gridtolerance="10"
     guidetolerance="10"
     inkscape:pageopacity="0"
     inkscape:pageshadow="2"
     inkscape:window-width="1920"
     inkscape:window-height="1017"
     id="namedview10"
     showgrid="false"
     inkscape:zoom="4.9684211"
     inkscape:cx="-22.643008"
     inkscape:cy="23.75"
     inkscape:window-x="-8"
     inkscape:window-y="-8"
     inkscape:window-maximized="1"
     inkscape:current-layer="svg2" /><metadata
     id="metadata8"><rdf:RDF><cc:Work
         rdf:about=""><dc:format>image/svg+xml</dc:format><dc:type
           rdf:resource="http://purl.org/dc/dcmitype/StillImage" /><dc:title /></cc:Work></rdf:RDF></metadata><defs
     id="defs6"><clipPath
       clipPathUnits="userSpaceOnUse"
       id="clipPath16"><path
         d="M 0,38 38,38 38,0 0,0 0,38 Z"
         id="path18" /></clipPath></defs><g
     transform="matrix(1.6516861,0,0,1.6516861,53.251035,-19.024589)"
     id="g4168"
     style="fill:#cb4b16;fill-opacity:1"><path
       id="path4162"
       d="m -4.3873575,26.207596 q 0,0.789261 -0.4510061,1.183891 -0.451006,0.39463 -1.1275151,0.39463 -0.6765091,0 -1.1275151,-0.39463 -0.4510061,-0.39463 -0.4510061,-1.183891 0,-4.059054 -2.7060361,-7.216097 -3.044291,-3.551672 -7.892606,-3.551672 -4.171806,0 -7.103345,3.213418 -2.875164,3.157042 -2.875164,7.667103 0,4.11543 2.987915,7.046969 2.987915,2.931539 7.159721,2.931539 l 11.838909,0 q 0.7892606,0 1.1838909,0.451006 0.4510061,0.451006 0.4510061,1.183891 0,0.620134 -0.4510061,1.127515 -0.3946303,0.451006 -1.1838909,0.451006 l -11.838909,0 q -5.412072,0 -9.414751,-3.833551 -3.946303,-3.889927 -3.946303,-9.358375 0,-5.637576 3.777176,-9.809382 3.833551,-4.228182 9.414751,-4.228182 6.314085,0 10.2603876,4.622812 3.4952969,4.059055 3.4952969,9.302 z"
       style="font-style:normal;font-variant:normal;font-weight:100;font-stretch:normal;font-size:medium;line-height:125%;font-family:Skinny;-inkscape-font-specification:'Skinny Thin';letter-spacing:0px;word-spacing:0px;fill:#cb4b16;fill-opacity:1;stroke:none;stroke-width:1px;stroke-linecap:butt;stroke-linejoin:miter;stroke-opacity:1" /><path
       style="font-style:normal;font-variant:normal;font-weight:100;font-stretch:normal;font-size:medium;line-height:125%;font-family:Skinny;-inkscape-font-specification:'Skinny Thin';letter-spacing:0px;word-spacing:0px;fill:#cb4b16;fill-opacity:1;stroke:none;stroke-width:1px;stroke-linecap:butt;stroke-linejoin:miter;stroke-opacity:1"
       d="m -17.974609,18.597656 c -2.104695,0 -3.963973,0.676279 -5.580079,2.029297 -1.57852,1.315435 -2.36914,3.024212 -2.36914,5.128906 0,2.292614 0.809676,4.22812 2.425781,5.806641 1.616105,1.578521 3.551611,2.369141 5.806641,2.369141 l 11.4433591,0 c 0.5261738,0 0.9205069,-0.150502 1.1835938,-0.451172 0.2630868,-0.300671 0.3945312,-0.675947 0.3945312,-1.126953 0,-0.451006 -0.1314444,-0.828236 -0.3945312,-1.128907 -0.2630869,-0.30067 -0.65742,-0.451171 -1.1835938,-0.451171 l -11.4433591,0 c -1.95436,0 -3.402201,-0.845837 -4.341797,-2.53711 l 10.205078,0 c 1.052347,0 1.578125,-0.544834 1.578125,-1.634766 -0.263087,-1.804023 -0.602202,-3.137525 -1.015625,-4.001953 -1.315434,-2.668452 -3.551942,-4.001953 -6.708984,-4.001953 z m 0,3.212891 c 1.240266,0 2.236604,0.35622 2.988281,1.070312 0.563758,0.526174 0.977148,1.240566 1.240234,2.142579 l -8.90625,0 c 0.187919,-1.014764 0.69464,-1.80343 1.521485,-2.367188 0.826844,-0.563757 1.8784,-0.845703 3.15625,-0.845703 z"
       id="path4160" /></g></svg>